<svg width="184" height="23" viewBox="0 0 184 23" fill="none" xmlns="http://www.w3.org/2000/svg">
<path d="M5.30667 18H0.893333V2.37333H2.65333C3.12444 2.37333 3.83556 2.35556 4.78667 2.32C5.73778 2.27556 6.52 2.25333 7.13333 2.25333C8.85778 2.25333 10.1644 2.71111 11.0533 3.62667C11.9422 4.54222 12.3867 5.91556 12.3867 7.74667C12.3867 8.84889 12.24 9.85333 11.9467 10.76C11.6622 11.6578 11.2756 12.3956 10.7867 12.9733C10.2978 13.5511 9.74222 13.9956 9.12 14.3067C8.49778 14.6178 7.84 14.7733 7.14667 14.7733C7.05778 14.7733 6.96444 14.7733 6.86667 14.7733C6.77778 14.7733 6.69333 14.7733 6.61333 14.7733C6.54222 14.7644 6.45333 14.76 6.34667 14.76C6.24889 14.7511 6.16889 14.7467 6.10667 14.7467C6.05333 14.7378 5.97333 14.7333 5.86667 14.7333C5.76889 14.7244 5.70222 14.72 5.66667 14.72C5.63111 14.72 5.56444 14.7156 5.46667 14.7067C5.36889 14.6978 5.31556 14.6933 5.30667 14.6933V18ZM8.01333 7.16C8.01333 6.50222 7.83556 5.96889 7.48 5.56C7.12444 5.15111 6.61333 4.94667 5.94667 4.94667H5.30667V11.88H5.8C6.50222 11.88 7.04444 11.6444 7.42667 11.1733C7.81778 10.7022 8.01333 10.0222 8.01333 9.13333V7.16ZM19.3 16.8133L19.1667 16.96C19.0778 17.0667 18.94 17.1911 18.7533 17.3333C18.5756 17.4756 18.3667 17.6178 18.1267 17.76C17.8956 17.9022 17.6111 18.0222 17.2733 18.12C16.9356 18.2267 16.5889 18.28 16.2333 18.28C13.8333 18.28 12.6333 17.0933 12.6333 14.72C12.6333 14.2578 12.7178 13.8356 12.8867 13.4533C13.0556 13.0622 13.2733 12.7333 13.54 12.4667C13.8067 12.2 14.1267 11.9644 14.5 11.76C14.8733 11.5467 15.2467 11.3822 15.62 11.2667C16.0022 11.1422 16.4022 11.04 16.82 10.96C17.2378 10.88 17.6111 10.8267 17.94 10.8C18.2689 10.7733 18.5844 10.76 18.8867 10.76V10.52C18.8867 9.97778 18.74 9.59556 18.4467 9.37333C18.1622 9.15111 17.7 9.04 17.06 9.04C16.5089 9.04 15.9356 9.10667 15.34 9.24C14.7444 9.36444 14.2778 9.51556 13.94 9.69333L13.0867 7.88C13.6911 7.48889 14.4778 7.14667 15.4467 6.85333C16.4156 6.55111 17.4022 6.4 18.4067 6.4C19.2956 6.4 20.0289 6.48889 20.6067 6.66667C21.1844 6.83556 21.6511 7.12889 22.0067 7.54667C22.3711 7.95556 22.6289 8.48 22.78 9.12C22.9311 9.75111 23.0067 10.5556 23.0067 11.5333V16.96L23.38 18H19.7267L19.3 16.8133ZM18.2467 15.9333C18.3622 15.9333 18.4689 15.9111 18.5667 15.8667C18.6733 15.8133 18.7533 15.7644 18.8067 15.72C18.86 15.6667 18.8867 15.64 18.8867 15.64V12.44C18.3444 12.44 17.9133 12.5911 17.5933 12.8933C17.2733 13.1867 17.1133 13.6444 17.1133 14.2667C17.1133 15.3778 17.4911 15.9333 18.2467 15.9333ZM29.0185 18H24.7119V9.37333L23.9119 8.88V7.45333L26.7785 6.66667H29.0452V8.38667L29.2052 8.18667C29.3119 8.04444 29.4674 7.87556 29.6719 7.68C29.8852 7.48444 30.1208 7.29333 30.3785 7.10667C30.6363 6.91111 30.943 6.74667 31.2985 6.61333C31.663 6.47111 32.0185 6.4 32.3652 6.4C33.583 6.4 34.4408 6.73333 34.9385 7.4C35.4452 8.06667 35.6985 9.18222 35.6985 10.7467C35.6985 10.8 35.6985 10.88 35.6985 10.9867C35.6897 11.0933 35.6852 11.1778 35.6852 11.24V18H31.2852V10.8533C31.3119 10.0178 30.9563 9.6 30.2185 9.6C30.1652 9.6 30.1119 9.60444 30.0585 9.61333C30.0141 9.62222 29.9697 9.63111 29.9252 9.64C29.8897 9.64889 29.8452 9.66667 29.7919 9.69333C29.7474 9.71111 29.7074 9.72889 29.6719 9.74667C29.6363 9.75556 29.5963 9.77778 29.5519 9.81333C29.5074 9.84 29.4719 9.86222 29.4452 9.88C29.4185 9.89778 29.3785 9.92889 29.3252 9.97333C29.2808 10.0089 29.2452 10.0356 29.2185 10.0533C29.2008 10.0711 29.1652 10.1022 29.1119 10.1467C29.0674 10.1822 29.0363 10.2089 29.0185 10.2267V18ZM44.8215 18L44.3015 16.28C44.2303 16.4044 44.1459 16.5289 44.0481 16.6533C43.9592 16.7778 43.8126 16.9378 43.6081 17.1333C43.4037 17.32 43.1859 17.4844 42.9548 17.6267C42.7237 17.7689 42.4348 17.8933 42.0881 18C41.7415 18.1067 41.377 18.16 40.9948 18.16C39.5281 18.16 38.4526 17.6578 37.7681 16.6533C37.0837 15.6489 36.7415 14.2533 36.7415 12.4667C36.7415 11.3467 36.9015 10.3511 37.2215 9.48C37.5415 8.6 38.0437 7.89333 38.7281 7.36C39.4126 6.82667 40.2392 6.56 41.2081 6.56C41.7859 6.56 42.3015 6.62222 42.7548 6.74667C43.2081 6.87111 43.5992 7.02222 43.9281 7.2V3.16L42.4615 2.66667V1.2L47.1815 0.533333H48.2215V18H44.8215ZM42.9415 15.5467C43.1015 15.5467 43.2659 15.52 43.4348 15.4667C43.6037 15.4044 43.7681 15.32 43.9281 15.2133V8.50667C43.6526 8.44444 43.3992 8.41333 43.1681 8.41333C41.9859 8.42222 41.3903 9.33333 41.3815 11.1467V13.0133C41.3815 13.8489 41.5281 14.48 41.8215 14.9067C42.1148 15.3333 42.4881 15.5467 42.9415 15.5467ZM55.3844 16.68C55.7755 16.68 56.0733 16.52 56.2777 16.2C56.491 15.8711 56.5977 15.4222 56.5977 14.8533V10.64C56.5977 8.90667 56.1888 8.04 55.371 8.04C54.9888 8.04 54.691 8.19556 54.4777 8.50667C54.2644 8.81778 54.1577 9.25778 54.1577 9.82667V14.16C54.1577 15.84 54.5666 16.68 55.3844 16.68ZM55.2777 18.28C53.2422 18.28 51.7533 17.8178 50.811 16.8933C49.8688 15.9689 49.3977 14.4933 49.3977 12.4667C49.3977 10.4578 49.8733 8.94667 50.8244 7.93333C51.7755 6.91111 53.3222 6.4 55.4644 6.4C57.5533 6.4 59.0599 6.88889 59.9844 7.86667C60.9177 8.83556 61.3844 10.3067 61.3844 12.28C61.3844 14.3244 60.891 15.8356 59.9044 16.8133C58.9266 17.7911 57.3844 18.28 55.2777 18.28ZM67.1435 18H62.8369V9.37333L62.0369 8.88V7.37333L64.9035 6.66667H65.9835L66.3702 9.84C66.7347 7.66222 67.9035 6.57333 69.8769 6.57333C70.0991 6.57333 70.3302 6.61333 70.5702 6.69333L70.1169 11.44C69.9302 11.2711 69.5213 11.1867 68.8902 11.1867C67.9835 11.1867 67.4013 11.4267 67.1435 11.9067V18ZM77.3859 16.8133L77.2526 16.96C77.1637 17.0667 77.0259 17.1911 76.8393 17.3333C76.6615 17.4756 76.4526 17.6178 76.2126 17.76C75.9815 17.9022 75.697 18.0222 75.3593 18.12C75.0215 18.2267 74.6748 18.28 74.3193 18.28C71.9193 18.28 70.7193 17.0933 70.7193 14.72C70.7193 14.2578 70.8037 13.8356 70.9726 13.4533C71.1415 13.0622 71.3593 12.7333 71.6259 12.4667C71.8926 12.2 72.2126 11.9644 72.5859 11.76C72.9593 11.5467 73.3326 11.3822 73.7059 11.2667C74.0882 11.1422 74.4882 11.04 74.9059 10.96C75.3237 10.88 75.697 10.8267 76.0259 10.8C76.3548 10.7733 76.6704 10.76 76.9726 10.76V10.52C76.9726 9.97778 76.8259 9.59556 76.5326 9.37333C76.2482 9.15111 75.7859 9.04 75.1459 9.04C74.5948 9.04 74.0215 9.10667 73.4259 9.24C72.8304 9.36444 72.3637 9.51556 72.0259 9.69333L71.1726 7.88C71.777 7.48889 72.5637 7.14667 73.5326 6.85333C74.5015 6.55111 75.4882 6.4 76.4926 6.4C77.3815 6.4 78.1148 6.48889 78.6926 6.66667C79.2704 6.83556 79.737 7.12889 80.0926 7.54667C80.457 7.95556 80.7148 8.48 80.8659 9.12C81.017 9.75111 81.0926 10.5556 81.0926 11.5333V16.96L81.4659 18H77.8126L77.3859 16.8133ZM76.3326 15.9333C76.4482 15.9333 76.5548 15.9111 76.6526 15.8667C76.7593 15.8133 76.8393 15.7644 76.8926 15.72C76.9459 15.6667 76.9726 15.64 76.9726 15.64V12.44C76.4304 12.44 75.9993 12.5911 75.6793 12.8933C75.3593 13.1867 75.1993 13.6444 75.1993 14.2667C75.1993 15.3778 75.577 15.9333 76.3326 15.9333ZM97.8694 16.8933L97.7494 17.04C97.6605 17.1289 97.5094 17.2444 97.296 17.3867C97.0916 17.52 96.8427 17.6578 96.5494 17.8C96.2649 17.9333 95.8827 18.0444 95.4027 18.1333C94.9227 18.2311 94.4072 18.28 93.856 18.28C92.6916 18.28 91.696 18.0889 90.8694 17.7067C90.0427 17.3156 89.3938 16.7511 88.9227 16.0133C88.4605 15.2667 88.1272 14.4267 87.9227 13.4933C87.7183 12.5511 87.616 11.4622 87.616 10.2267C87.616 8.91111 87.7183 7.77778 87.9227 6.82667C88.1272 5.86667 88.4649 5.02667 88.936 4.30667C89.416 3.57778 90.0738 3.03111 90.9094 2.66667C91.7449 2.30222 92.7627 2.12 93.9627 2.12C94.5138 2.12 95.0294 2.16889 95.5094 2.26667C95.9983 2.36444 96.3805 2.47556 96.656 2.6C96.9405 2.72444 97.1938 2.86667 97.416 3.02667C97.6472 3.18667 97.7894 3.29778 97.8427 3.36C97.9049 3.42222 97.9494 3.47111 97.976 3.50667L97.776 6.57333H95.7494L95.056 4.98667C94.896 4.94222 94.7627 4.92 94.656 4.92C94.0605 4.92 93.6027 5.05778 93.2827 5.33333C92.9627 5.6 92.7183 6.12889 92.5494 6.92C92.3805 7.70222 92.296 8.83111 92.296 10.3067C92.296 11.1867 92.3494 11.9556 92.456 12.6133C92.5716 13.2711 92.7094 13.7778 92.8694 14.1333C93.0294 14.48 93.2205 14.76 93.4427 14.9733C93.6649 15.1867 93.8649 15.3244 94.0427 15.3867C94.2205 15.44 94.4116 15.4667 94.616 15.4667C95.0694 15.4667 95.5449 15.4133 96.0427 15.3067C96.5405 15.1911 96.9494 15.0178 97.2694 14.7867L97.8694 16.8933ZM104.564 16.68C104.955 16.68 105.253 16.52 105.457 16.2C105.671 15.8711 105.777 15.4222 105.777 14.8533V10.64C105.777 8.90667 105.369 8.04 104.551 8.04C104.169 8.04 103.871 8.19556 103.657 8.50667C103.444 8.81778 103.337 9.25778 103.337 9.82667V14.16C103.337 15.84 103.746 16.68 104.564 16.68ZM104.457 18.28C102.422 18.28 100.933 17.8178 99.9907 16.8933C99.0485 15.9689 98.5774 14.4933 98.5774 12.4667C98.5774 10.4578 99.053 8.94667 100.004 7.93333C100.955 6.91111 102.502 6.4 104.644 6.4C106.733 6.4 108.24 6.88889 109.164 7.86667C110.097 8.83556 110.564 10.3067 110.564 12.28C110.564 14.3244 110.071 15.8356 109.084 16.8133C108.106 17.7911 106.564 18.28 104.457 18.28ZM116.323 18H112.017V9.37333L111.217 8.88V7.45333L114.083 6.66667H116.35V8.38667C116.394 8.32444 116.457 8.24444 116.537 8.14667C116.625 8.04 116.785 7.87556 117.017 7.65333C117.248 7.43111 117.483 7.23556 117.723 7.06667C117.972 6.89778 118.27 6.74667 118.617 6.61333C118.972 6.47111 119.323 6.4 119.67 6.4C120.559 6.4 121.239 6.56889 121.71 6.90667C122.181 7.24444 122.514 7.79556 122.71 8.56C123.012 8.03556 123.474 7.54667 124.097 7.09333C124.728 6.63111 125.421 6.4 126.177 6.4C127.012 6.4 127.661 6.54667 128.123 6.84C128.594 7.12445 128.937 7.61333 129.15 8.30667C129.363 9 129.47 9.97778 129.47 11.24V18H125.137V10.8533C125.137 10.4622 125.043 10.1556 124.857 9.93333C124.67 9.71111 124.385 9.6 124.003 9.6C123.745 9.6 123.394 9.81333 122.95 10.24C122.977 10.6667 122.99 11.1289 122.99 11.6267V18H118.59V10.8533C118.617 10.0178 118.261 9.6 117.523 9.6C117.47 9.6 117.417 9.60444 117.363 9.61333C117.319 9.62222 117.274 9.63111 117.23 9.64C117.194 9.64889 117.15 9.66667 117.097 9.69333C117.052 9.71111 117.012 9.72889 116.977 9.74667C116.941 9.75556 116.901 9.77778 116.857 9.81333C116.812 9.84 116.777 9.86222 116.75 9.88C116.723 9.89778 116.683 9.92889 116.63 9.97333C116.585 10.0089 116.55 10.0356 116.523 10.0533C116.505 10.0711 116.47 10.1022 116.417 10.1467C116.372 10.1822 116.341 10.2089 116.323 10.2267V18ZM137.984 18C137.468 18 136.997 17.9467 136.571 17.84C136.144 17.7333 135.771 17.6 135.451 17.44V22.0267H131.157V9.37333L130.357 8.88V7.45333L133.224 6.66667H135.451V7.56C135.771 7.23111 136.157 6.95556 136.611 6.73333C137.064 6.51111 137.593 6.4 138.197 6.4C139.664 6.4 140.739 6.90222 141.424 7.90667C142.117 8.91111 142.464 10.3022 142.464 12.08C142.464 12.9156 142.371 13.6889 142.184 14.4C141.997 15.1022 141.722 15.7244 141.357 16.2667C140.993 16.8089 140.522 17.2356 139.944 17.5467C139.375 17.8489 138.722 18 137.984 18ZM136.024 16.1467C137.215 16.1467 137.811 15.2356 137.811 13.4133V11.1467C137.811 10.3467 137.673 9.75111 137.397 9.36C137.131 8.96889 136.784 8.77333 136.357 8.77333C136.064 8.77333 135.762 8.86222 135.451 9.04V16.08C135.557 16.1067 135.655 16.1244 135.744 16.1333C135.842 16.1422 135.935 16.1467 136.024 16.1467ZM150.529 16.2267C150.475 16.3511 150.364 16.5156 150.195 16.72C150.035 16.9244 149.822 17.1511 149.555 17.4C149.289 17.64 148.96 17.8444 148.569 18.0133C148.178 18.1911 147.782 18.28 147.382 18.28C146.129 18.28 145.231 17.9067 144.689 17.16C144.155 16.4133 143.889 15.1689 143.889 13.4267V8.68L143.422 8.2V6.66667H148.262V14.2667C148.253 14.6667 148.32 14.9644 148.462 15.16C148.604 15.3467 148.862 15.44 149.235 15.44C149.289 15.44 149.338 15.44 149.382 15.44C149.427 15.4311 149.471 15.4222 149.515 15.4133C149.56 15.3956 149.595 15.3822 149.622 15.3733C149.658 15.3644 149.698 15.3511 149.742 15.3333C149.787 15.3067 149.822 15.2844 149.849 15.2667C149.875 15.2489 149.911 15.2267 149.955 15.2C150 15.1644 150.031 15.1378 150.049 15.12C150.075 15.1022 150.111 15.0756 150.155 15.04C150.209 14.9956 150.249 14.9644 150.275 14.9467V8.68L149.555 8.2V6.66667H154.635V18H150.942L150.529 16.2267ZM159.59 18.28C158.39 18.28 157.55 17.92 157.07 17.2C156.599 16.48 156.363 15.2622 156.363 13.5467V9.01333H155.443V7.16L157.016 6.66667L158.376 3.56H160.723V6.66667H162.91V9.01333H160.683V13.9733C160.683 14.6844 160.785 15.1556 160.99 15.3867C161.194 15.6178 161.51 15.7333 161.936 15.7333C162.123 15.7333 162.292 15.7111 162.443 15.6667C162.594 15.6222 162.719 15.56 162.816 15.48V17.2933C162.683 17.4267 162.51 17.56 162.296 17.6933C162.083 17.8178 161.727 17.9467 161.23 18.08C160.741 18.2133 160.194 18.28 159.59 18.28ZM170.074 11.1067C170.074 9.97778 170.016 9.17778 169.9 8.70667C169.785 8.23556 169.571 8 169.26 8C168.994 8 168.776 8.04889 168.607 8.14667C168.438 8.23556 168.314 8.38222 168.234 8.58667C168.154 8.78222 168.1 8.98667 168.074 9.2C168.056 9.40444 168.047 9.66667 168.047 9.98667V11.1067H170.074ZM169.007 18.28C168.011 18.28 167.145 18.1289 166.407 17.8267C165.678 17.5244 165.1 17.1022 164.674 16.56C164.256 16.0178 163.949 15.4089 163.754 14.7333C163.558 14.0489 163.46 13.2889 163.46 12.4533C163.46 10.4622 163.967 8.95556 164.98 7.93333C165.994 6.91111 167.411 6.4 169.234 6.4C170.985 6.4 172.238 6.81333 172.994 7.64C173.749 8.45778 174.127 9.77778 174.127 11.6V13.08H168.034V13.3333C168.034 13.8578 168.087 14.2889 168.194 14.6267C168.309 14.9644 168.474 15.2133 168.687 15.3733C168.9 15.5333 169.118 15.64 169.34 15.6933C169.562 15.7467 169.834 15.7733 170.154 15.7733C170.465 15.7733 170.798 15.7333 171.154 15.6533C171.518 15.5733 171.882 15.4489 172.247 15.28C172.62 15.1111 172.931 14.9111 173.18 14.68L173.967 16.0267C173.638 16.56 173.154 17.0089 172.514 17.3733C171.882 17.7289 171.274 17.9689 170.687 18.0933C170.1 18.2178 169.54 18.28 169.007 18.28ZM179.878 18H175.571V9.37333L174.771 8.88V7.37333L177.638 6.66667H178.718L179.105 9.84C179.469 7.66222 180.638 6.57333 182.611 6.57333C182.833 6.57333 183.065 6.61333 183.305 6.69333L182.851 11.44C182.665 11.2711 182.256 11.1867 181.625 11.1867C180.718 11.1867 180.136 11.4267 179.878 11.9067V18Z" fill="black"/>
</svg>
